<?xml version="1.0" encoding="UTF-8"?>
<svg id="uuid-b55cfaa5-453d-4c9d-9fc5-df6614262cc1" data-name="Lager 1" xmlns="http://www.w3.org/2000/svg" viewBox="0 0 241.62 255.62">
  <path d="M16.94,150.11c6.56,2.93,13.03,5.83,19.94,8.92v1.99c0,20.96,0,41.93,0,62.89,0,7.8,3.85,11.67,11.61,11.67,38.84,0,77.69,0,116.53,0,7.75,0,11.6-3.87,11.6-11.69,0-39.43,0-82.85,0-130.28v-2.91c-5.95,1.4-11.69,1.6-17.3,.06-3.41-.94-6.64-2.55-10-3.69-.97-.33-2.31-.48-3.18-.07-13.84,6.54-27.59,6.37-41.35-.25-.78-.37-2.03-.53-2.74-.16-7.82,3.98-16.12,5.58-25.24,5.15,0,.97,.02,1.85,0,2.72-.15,6.56,.24,13.19-.56,19.67-1.75,14.26-14.77,25.11-29.37,25.12-14.6,.01-27.8-10.83-29.38-25.07-.93-8.39-.56-16.93-.53-25.41,0-2.44-.76-3.86-2.68-5.3C2.53,74.62-2.65,58.61,1.32,43.93c3.91-14.5,16.49-25.77,30.98-27.46,3.67-.43,7.44,.02,11.16-.12,1.09-.04,2.49-.41,3.2-1.15C61.62-.46,81.72-4.29,101.34,4.97c1.45,.69,2.57,.58,3.95-.07,19.23-9.14,39.79-5.31,54.26,10.11,1.01,1.08,1.94,1.51,3.44,1.3,14.86-2.12,29.74,5.37,37.6,18.85,7.46,12.78,6.39,29.52-2.49,41.41-.86,1.15-1.4,2.81-1.43,4.25-.15,6.89-.07,10.78-.07,17.99,4.95,0,9.75,0,14.54,0,6.97,0,13.28,2.01,18.76,6.34,7.26,5.74,11.38,13.29,11.53,22.54,.24,14.72,.26,39.45,0,54.17-.27,15.54-13.29,28.35-28.87,28.76-5.22,.14-10.45,.02-15.97,.02,0,2.84,.04,5.47,0,8.11-.12,6.23,.22,5.52-.54,11.67-1.71,13.81-14.1,24.71-28.1,25.09-7.81,.21-15.64,.07-23.45,.07-32.36,0-64.71,.03-97.07-.01-14.64-.02-26.41-9.26-29.72-23.29-.51-2.16-.77-4.44-.77-6.66-.05-24.87-.04-49.75-.03-74.62,0-.41,.04-.82,.04-.87ZM148.68,60.67c2.86,2.61,5.43,5.22,8.26,7.5,5.57,4.49,13.38,4.81,19.9,1.06,5.87-3.38,9.45-10.62,8.58-17.34-1.58-12.17-13.36-18.93-25.13-14.4-2.54,.98-5.03,2.07-7.67,3.17-1.35-2.34-2.59-4.49-3.84-6.64-8.83-15.24-26.5-18.57-40.28-7.59-1.74,1.39-3.48,2.77-5.07,4.03-3.76-2.63-7.05-5.56-10.85-7.49-12.94-6.57-27.14-2.09-34.61,10.58-1.47,2.5-2.84,5.05-4.34,7.75-2.78-1.25-5.39-2.5-8.05-3.61-8.8-3.66-18.2-.93-22.82,6.59-4.75,7.72-3.52,17.3,3.36,23.04,2.37,1.97,5.35,3.32,8.23,4.53,2.02,.85,2.6,1.89,2.58,4.03-.12,10.98-.08,21.96-.04,32.94,.02,4.84,2.69,8.59,6.87,9.94,6.62,2.12,13-2.63,13.04-9.89,.07-13.98,.02-27.95,.02-41.93,0-.87,0-1.74,0-2.97,4.05,1.72,7.75,3.17,11.35,4.83,11.21,5.16,21.46,3.72,30.85-4.25,1.37-1.17,2.84-2.23,4.37-3.42,6.62,5.97,13.51,10.88,22.81,10.73,9.28-.15,15.91-5.55,22.48-11.17Zm48.09,58.15v71.81c5.24,0,10.3,.15,15.35-.04,5.2-.2,9.3-4.31,9.34-9.55,.13-14.21,.13-38.43,0-52.64-.05-5.24-4.15-9.34-9.35-9.54-5.05-.19-10.12-.04-15.35-.04Z"/>
  <path d="M116.56,215.52h-19.67V111.99h19.67v103.54Z"/>
  <path d="M136.86,111.9h19.67v103.54h-19.67V111.9Z"/>
  <path d="M76.65,215.54h-19.69c-.05-.72-.13-1.36-.13-2,0-17.7,.02-35.4-.05-53.09,0-1.74,.48-2.43,2.19-2.83,5.79-1.36,11.13-3.79,16.01-7.21,.46-.32,.96-.58,1.67-1v66.13Z"/>
</svg>