<?xml version="1.0" encoding="UTF-8"?>
<svg id="uuid-35f95137-343e-422d-89ca-0e0d5f8844e8" data-name="Lager 1" xmlns="http://www.w3.org/2000/svg" viewBox="0 0 37.81 40">
  <defs>
    <style>
      .uuid-0bd38a7c-61c7-4711-beef-50772be46299 {
        fill: #1d1d1b;
      }
    </style>
  </defs>
  <path class="uuid-0bd38a7c-61c7-4711-beef-50772be46299" d="M2.65,23.49c1.03,.46,2.04,.91,3.12,1.4v.31c0,3.28,0,6.56,0,9.84,0,1.22,.6,1.83,1.82,1.83,6.08,0,12.16,0,18.24,0,1.21,0,1.81-.61,1.81-1.83,0-6.17,0-12.96,0-20.39v-.46c-.93,.22-1.83,.25-2.71,0-.53-.15-1.04-.4-1.56-.58-.15-.05-.36-.08-.5-.01-2.17,1.02-4.32,1-6.47-.04-.12-.06-.32-.08-.43-.03-1.22,.62-2.52,.87-3.95,.81,0,.15,0,.29,0,.43-.02,1.03,.04,2.06-.09,3.08-.27,2.23-2.31,3.93-4.6,3.93-2.28,0-4.35-1.69-4.6-3.92-.15-1.31-.09-2.65-.08-3.98,0-.38-.12-.6-.42-.83C.4,11.68-.41,9.17,.21,6.87,.82,4.6,2.79,2.84,5.05,2.58c.57-.07,1.16,0,1.75-.02,.17,0,.39-.06,.5-.18C9.64-.07,12.79-.67,15.86,.78c.23,.11,.4,.09,.62-.01,3.01-1.43,6.23-.83,8.49,1.58,.16,.17,.3,.24,.54,.2,2.33-.33,4.65,.84,5.88,2.95,1.17,2,1,4.62-.39,6.48-.13,.18-.22,.44-.22,.66-.02,1.08-.01,1.69-.01,2.82,.78,0,1.53,0,2.27,0,1.09,0,2.08,.31,2.94,.99,1.14,.9,1.78,2.08,1.8,3.53,.04,2.3,.04,6.17,0,8.48-.04,2.43-2.08,4.44-4.52,4.5-.82,.02-1.63,0-2.5,0,0,.44,0,.86,0,1.27-.02,.97,.03,.86-.08,1.83-.27,2.16-2.21,3.87-4.4,3.93-1.22,.03-2.45,.01-3.67,.01-5.06,0-10.13,0-15.19,0-2.29,0-4.13-1.45-4.65-3.65-.08-.34-.12-.69-.12-1.04,0-3.89,0-7.78,0-11.68,0-.06,0-.13,0-.14ZM23.27,9.49c.45,.41,.85,.82,1.29,1.17,.87,.7,2.09,.75,3.11,.17,.92-.53,1.48-1.66,1.34-2.71-.25-1.9-2.09-2.96-3.93-2.25-.4,.15-.79,.32-1.2,.5-.21-.37-.41-.7-.6-1.04-1.38-2.38-4.15-2.91-6.3-1.19-.27,.22-.55,.43-.79,.63-.59-.41-1.1-.87-1.7-1.17-2.03-1.03-4.25-.33-5.42,1.66-.23,.39-.44,.79-.68,1.21-.44-.2-.84-.39-1.26-.56-1.38-.57-2.85-.14-3.57,1.03-.74,1.21-.55,2.71,.53,3.6,.37,.31,.84,.52,1.29,.71,.32,.13,.41,.3,.4,.63-.02,1.72-.01,3.44,0,5.15,0,.76,.42,1.34,1.08,1.56,1.04,.33,2.03-.41,2.04-1.55,.01-2.19,0-4.37,0-6.56,0-.14,0-.27,0-.46,.63,.27,1.21,.5,1.78,.76,1.75,.81,3.36,.58,4.83-.66,.21-.18,.44-.35,.68-.54,1.04,.93,2.11,1.7,3.57,1.68,1.45-.02,2.49-.87,3.52-1.75Zm7.53,9.1v11.24c.82,0,1.61,.02,2.4,0,.81-.03,1.45-.67,1.46-1.49,.02-2.22,.02-6.01,0-8.24,0-.82-.65-1.46-1.46-1.49-.79-.03-1.58,0-2.4,0Z"/>
  <path class="uuid-0bd38a7c-61c7-4711-beef-50772be46299" d="M18.24,33.73h-3.08V17.52h3.08v16.2Z"/>
  <path class="uuid-0bd38a7c-61c7-4711-beef-50772be46299" d="M21.42,17.51h3.08v16.2h-3.08V17.51Z"/>
  <path class="uuid-0bd38a7c-61c7-4711-beef-50772be46299" d="M11.99,33.73h-3.08c0-.11-.02-.21-.02-.31,0-2.77,0-5.54,0-8.31,0-.27,.08-.38,.34-.44,.91-.21,1.74-.59,2.51-1.13,.07-.05,.15-.09,.26-.16v10.35Z"/>
</svg>